<?xml version="1.0" encoding="UTF-8" standalone="no"?>
<svg
   xmlns:dc="http://purl.org/dc/elements/1.1/"
   xmlns:cc="http://creativecommons.org/ns#"
   xmlns:rdf="http://www.w3.org/1999/02/22-rdf-syntax-ns#"
   xmlns:svg="http://www.w3.org/2000/svg"
   xmlns="http://www.w3.org/2000/svg"
   xmlns:xlink="http://www.w3.org/1999/xlink"
   xmlns:sodipodi="http://sodipodi.sourceforge.net/DTD/sodipodi-0.dtd"
   xmlns:inkscape="http://www.inkscape.org/namespaces/inkscape"
   height="1100"
   width="1900"
   version="1.1"
   id="svg122"
   sodipodi:docname="sotalippu.svg"
   inkscape:version="1.0.2 (e86c870879, 2021-01-15, custom)">
  <metadata
     id="metadata128">
    <rdf:RDF>
      <cc:Work
         rdf:about="">
        <dc:format>image/svg+xml</dc:format>
        <dc:type
           rdf:resource="http://purl.org/dc/dcmitype/StillImage" />
        <dc:title></dc:title>
      </cc:Work>
    </rdf:RDF>
  </metadata>
  <defs
     id="defs126" />
  <sodipodi:namedview
     pagecolor="#ffffff"
     bordercolor="#666666"
     borderopacity="1"
     objecttolerance="10"
     gridtolerance="10"
     guidetolerance="10"
     inkscape:pageopacity="0"
     inkscape:pageshadow="2"
     inkscape:window-width="1920"
     inkscape:window-height="1017"
     id="namedview124"
     showgrid="false"
     inkscape:zoom="0.64473684"
     inkscape:cx="694.08163"
     inkscape:cy="577.91837"
     inkscape:window-x="-8"
     inkscape:window-y="-4"
     inkscape:window-maximized="1"
     inkscape:current-layer="svg122" />
  <path
     d="m0 0h1900l-500 400v300l500 400h-1900z"
     fill="#fff"
     stroke="#000"
     stroke-width=".5"
     id="path2" />
  <path
     d="m0 400h1400l500 150-500 150h-1400z"
     fill="#003580"
     id="path4" />
  <path
     d="m500 0h300v1100h-300z"
     fill="#003580"
     id="path6" />
  <path
     d="m500 400h300v300h-300z"
     fill="#ffc726"
     id="path8" />
  <path
     d="m507.5 407.5h285v285h-285z"
     fill="#d21034"
     id="path10" />
  <g
     id="g1305"
     transform="matrix(2.4043094,0,0,2.4043094,516.39219,244.8989)"
     style="display:inline;mix-blend-mode:normal;stroke:#c8102e;stroke-width:0.3895;stroke-miterlimit:4;stroke-dasharray:none">
    <g
       style="mix-blend-mode:normal;stroke:#c8102e;stroke-width:0.3895;stroke-miterlimit:4;stroke-dasharray:none"
       id="g1244">
      <use
         x="0"
         y="0"
         xlink:href="#g1228"
         id="use1222"
         transform="translate(33.09281)"
         width="100%"
         height="100%"
         style="stroke:#c8102e;stroke-width:0.3895;stroke-miterlimit:4;stroke-dasharray:none" />
      <g
         id="g1228"
         style="stroke:#d21034;stroke-width:0.3895;stroke-miterlimit:4;stroke-dasharray:none;stroke-opacity:1"
         transform="matrix(1.156766,0,0,1.156766,-10.023111,-11.92302)">
        <path
           id="path1224"
           style="font-variation-settings:normal;vector-effect:none;fill:#ffffff;fill-opacity:1;fill-rule:evenodd;stroke:#d21034;stroke-width:0.3895;stroke-linecap:butt;stroke-linejoin:miter;stroke-miterlimit:4;stroke-dasharray:none;stroke-dashoffset:0;stroke-opacity:1;marker:none;marker-start:none;marker-mid:none;marker-end:none;stop-color:#c8102e"
           d="m 12.721867,71.48129 c 1.187268,0.815586 2.936737,1.235022 2.936737,1.235022 0,0 1.749469,-0.419436 2.936737,-1.235022 -0.408783,1.381189 -0.267074,3.174645 -0.267074,3.174645 0,0 0.939522,1.534231 2.082077,2.41136 -1.43991,0.03803 -3.101798,0.727016 -3.101798,0.727016 0,0 -1.168812,1.367643 -1.649942,2.725325 -0.48113,-1.357682 -1.649942,-2.725325 -1.649942,-2.725325 0,0 -1.661888,-0.688981 -3.101798,-0.727016 1.142555,-0.877129 2.082077,-2.41136 2.082077,-2.41136 0,0 0.14171,-1.793456 -0.267074,-3.174645 z"
           sodipodi:nodetypes="ccccccccccc" />
        <path
           sodipodi:nodetypes="sscccccccccccccccsccsssccccc"
           id="path1226"
           style="font-variation-settings:normal;opacity:1;vector-effect:none;fill:#ffffff;fill-opacity:1;fill-rule:evenodd;stroke:#d21034;stroke-width:1.47213;stroke-linecap:butt;stroke-linejoin:miter;stroke-miterlimit:4;stroke-dasharray:none;stroke-dashoffset:0;stroke-opacity:1;marker:none;marker-start:none;marker-mid:none;marker-end:none;stop-color:#c8102e;stop-opacity:1"
           d="m 59.128906,270.58984 c -3.081185,0.0294 -5.5633,2.53587 -5.5625,5.61719 2.06e-4,0.69481 0.129346,1.38356 0.38086,2.03125 -0.53834,-0.4395 -1.153577,-0.77526 -1.814454,-0.99023 -2.949637,-0.95819 -6.117601,0.65595 -7.076171,3.60547 -0.958194,2.94964 0.655954,6.1176 3.605468,7.07617 0.660641,0.21448 1.355336,0.30454 2.048829,0.26562 -0.584015,0.37573 -1.093278,0.85652 -1.501954,1.41797 -1.824042,2.50942 -1.26783,6.02248 1.242188,7.8457 2.509421,1.82405 6.022477,1.26784 7.845703,-1.24218 0.408081,-0.56291 0.708089,-1.1967 0.884766,-1.86914 0.177273,0.67258 0.477946,1.30638 0.886718,1.86914 1.823113,2.50878 5.334677,3.06489 7.84375,1.24218 2.510018,-1.82322 3.06623,-5.33628 1.242188,-7.8457 -0.408491,-0.56215 -0.917766,-1.04361 -1.501953,-1.41992 0.693371,0.0396 1.388063,-0.0498 2.048828,-0.26367 2.950297,-0.95775 4.565451,-4.12596 3.607422,-7.07617 -0.95855,-2.95053 -4.127891,-4.56494 -7.078125,-3.60547 -0.660044,0.2146 -1.274592,0.54969 -1.8125,0.98828 0.251277,-0.64708 0.380412,-1.33514 0.380859,-2.0293 6.65e-4,-3.10256 -2.514625,-5.61785 -5.617187,-5.61719 -0.01758,-8e-5 -0.03515,-8e-5 -0.05273,0 z m 4.899921,14.85343 c -3.58e-4,2.67654 -2.170551,4.84594 -4.847091,4.84532 -2.675848,-3.6e-4 -4.844961,-2.16947 -4.845319,-4.84532 -6.6e-4,-2.66619 2.152572,-4.8321 4.832017,-4.84709 2.690533,-6.2e-4 4.861013,2.16986 4.860393,4.84709 z"
           transform="scale(0.26458333)" />
      </g>
      <use
         height="100%"
         width="100%"
         transform="translate(95.167778)"
         id="use1230"
         xlink:href="#g1228"
         y="0"
         x="0"
         style="stroke:#c8102e;stroke-width:0.3895;stroke-miterlimit:4;stroke-dasharray:none" />
      <use
         style="stroke:#c8102e;stroke-width:0.3895;stroke-miterlimit:4;stroke-dasharray:none"
         x="0"
         y="0"
         xlink:href="#g1228"
         id="use1232"
         transform="translate(78.157504,24.883889)"
         width="100%"
         height="100%" />
      <use
         style="stroke:#c8102e;stroke-width:0.3895;stroke-miterlimit:4;stroke-dasharray:none"
         x="0"
         y="0"
         xlink:href="#g1228"
         id="use1234"
         transform="translate(0,32.455487)"
         width="100%"
         height="100%" />
      <use
         style="stroke:#c8102e;stroke-width:0.3895;stroke-miterlimit:4;stroke-dasharray:none"
         height="100%"
         width="100%"
         transform="translate(0,65.575224)"
         id="use1236"
         xlink:href="#g1228"
         y="0"
         x="0" />
      <use
         style="stroke:#c8102e;stroke-width:0.3895;stroke-miterlimit:4;stroke-dasharray:none"
         x="0"
         y="0"
         xlink:href="#g1228"
         id="use1238"
         transform="translate(33.09281,65.575224)"
         width="100%"
         height="100%" />
      <use
         style="stroke:#c8102e;stroke-width:0.3895;stroke-miterlimit:4;stroke-dasharray:none"
         height="100%"
         width="100%"
         transform="translate(95.167778,65.575224)"
         id="use1240"
         xlink:href="#g1228"
         y="0"
         x="0" />
      <use
         style="stroke:#c8102e;stroke-width:0.3895;stroke-miterlimit:4;stroke-dasharray:none"
         height="100%"
         width="100%"
         transform="translate(47.999809,91.260981)"
         id="use1242"
         xlink:href="#g1228"
         y="0"
         x="0" />
    </g>
    <g
       id="g1303"
       style="stroke:#c8102e;stroke-width:0.3895;stroke-miterlimit:4;stroke-dasharray:none">
      <g
         id="g1262"
         style="stroke:#c8102e;stroke-width:0.3895;stroke-miterlimit:4;stroke-dasharray:none">
        <path
           d="m 17.386629,84.040265 1.044472,-1.044473 c 0.626519,-0.626518 1.635283,-0.626518 2.261802,1e-6 l 1.044472,1.044472 c 0.626519,0.626519 0.626519,1.635283 0,2.261802 l -1.044472,1.044472 c -0.626519,0.626519 -1.635283,0.626519 -2.261802,10e-7 l -1.044472,-1.044473 c -0.62652,-0.626519 -0.62652,-1.635283 0,-2.261802 z"
           style="color:#000000;overflow:visible;opacity:1;mix-blend-mode:normal;fill:#ffc726;fill-opacity:1;fill-rule:evenodd;stroke:#d21034;stroke-width:0.3895;stroke-linecap:round;stroke-linejoin:miter;stroke-miterlimit:4;stroke-dasharray:none;stroke-opacity:1"
           id="path1246" />
        <path
           sodipodi:nodetypes="ccccccccsccsccsccscccccccccc"
           transform="scale(0.26458333)"
           d="m 163.45216,420.43262 -45.97549,-22.66092 -9.05732,-46.43674 -1.94137,-2.76855 c 11.03829,-5.83219 14.21343,-16.53054 14.21343,-16.53054 l -0.28907,-21.57493 c -6.38179,-4.25453 -12.32226,-9.58985 -12.32226,-9.58985 -0.4814,0.98175 -0.77958,1.92703 -0.95117,2.83399 l -0.0449,0.17383 c 0.0106,-0.0634 0.0135,-0.1237 0.0254,-0.1875 0,0 -3.90626,2.40346 -3.90626,4.20898 v 1.47852 c 0,-1.80553 -3.904292,-4.20899 -3.904292,-4.20899 0,0 -3.904297,2.40346 -3.904297,4.20899 v 1.47851 c 0,-1.80552 -3.904297,-4.20898 -3.904297,-4.20898 0,0 -3.904297,2.40346 -3.904296,4.20898 v 1.47852 c 0,-1.80552 -3.904297,-4.20899 -3.904297,-4.20899 0,0 -3.90625,2.40347 -3.90625,4.20899 v 25.03515 c 0,0 1.096953,-0.53808 2.46875,-1.54492 0.245094,2.50106 1.498901,8.81376 8.03125,12.93945 l -2.503614,2.77005 1.307634,56.692 52.136659,40.39343 28.31736,-12.69885 z"
           style="font-variation-settings:normal;opacity:1;mix-blend-mode:normal;vector-effect:none;fill:#ffffff;fill-opacity:1;fill-rule:evenodd;stroke:#d21034;stroke-width:1.47213;stroke-linecap:butt;stroke-linejoin:miter;stroke-miterlimit:4;stroke-dasharray:none;stroke-dashoffset:0;stroke-opacity:1;marker:none;marker-start:none;marker-mid:none;marker-end:none;stop-color:#c8102e;stop-opacity:1"
           id="path1248" />
        <path
           sodipodi:nodetypes="ccccccccccccc"
           d="m 103.20315,309.37891 -3e-5,23.99218 c 4.0529,-3.64199 6.856,-4.51438 6.856,-4.51438 0,0 -1.10936,-6.79479 0.63229,-15.06765 0,0 -4.69439,-4.16012 -3.58203,-10.09765 m -11.714819,7.16601 1.04e-4,26.51294 c 0,0 7.809255,-3.83721 7.809255,-10.15966 m -15.617952,-14.87476 -5.63e-4,25.03442 c 0,0 7.80926,-3.83721 7.80926,-10.15966 m -13.150494,8.61547 c 2.266153,-1.70061 5.341234,-4.7603 5.341234,-8.61547"
           transform="scale(0.26458333)"
           style="font-variation-settings:normal;opacity:1;mix-blend-mode:normal;vector-effect:none;fill:none;fill-opacity:1;fill-rule:evenodd;stroke:#d21034;stroke-width:1.47213;stroke-linecap:square;stroke-linejoin:miter;stroke-miterlimit:4;stroke-dasharray:none;stroke-dashoffset:0;stroke-opacity:1;marker:none;marker-start:none;marker-mid:none;marker-end:none;stop-color:#c8102e;stop-opacity:1"
           id="path1250" />
        <path
           style="font-variation-settings:normal;opacity:1;vector-effect:none;fill:#ffffff;fill-opacity:1;fill-rule:evenodd;stroke:#d21034;stroke-width:0.3895;stroke-linecap:butt;stroke-linejoin:miter;stroke-miterlimit:4;stroke-dasharray:none;stroke-dashoffset:0;stroke-opacity:1;marker:none;marker-start:none;marker-mid:none;marker-end:none;stop-color:#c8102e;stop-opacity:1"
           d="m 33.330193,88.746077 c 0,0 3.876156,-0.896315 5.936576,-0.923646 l 48.214692,-0.639566 c 0.831693,-0.01103 3.136046,-1.118419 4.965892,-2.141208 -1.829846,-1.02279 -4.134199,-1.871158 -4.965892,-1.88219 L 39.266769,82.519901 c -2.06042,-0.02733 -5.936576,-0.923646 -5.936576,-0.923646 z"
           id="path1252"
           sodipodi:nodetypes="csscsscc" />
        <path
           sodipodi:nodetypes="czccczccc"
           id="path1254"
           d="m 31.258504,76.537283 c 0,0 0.537577,-0.226123 1.890931,-0.226123 1.353354,0 1.890931,0.226123 1.890931,0.226123 -1.151993,5.426953 -0.0044,8.504374 -0.0044,8.504374 0,0 -1.147593,2.818401 0.0044,8.245355 0,0 -0.537577,0.226122 -1.890931,0.226122 -1.353354,0 -1.890931,-0.226122 -1.890931,-0.226122 1.151993,-5.426954 0.0044,-8.245355 0.0044,-8.245355 0,0 1.147593,-3.077421 -0.0044,-8.504374 z"
           style="font-variation-settings:normal;opacity:1;mix-blend-mode:normal;vector-effect:none;fill:#ffc726;fill-opacity:1;fill-rule:evenodd;stroke:#d21034;stroke-width:0.3895;stroke-linecap:butt;stroke-linejoin:miter;stroke-miterlimit:4;stroke-dasharray:none;stroke-dashoffset:0;stroke-opacity:1;marker:none;marker-start:none;marker-mid:none;marker-end:none;stop-color:#c8102e;stop-opacity:1" />
        <path
           d="m 23.274462,91.998497 h 5.830124 c 0.469926,0 0.848242,0.378316 0.848242,0.848242 v 0.692484 c 0,0.469927 -0.378316,0.848243 -0.848242,0.848243 h -5.830124 c -0.469926,0 -0.848242,-0.378316 -0.848242,-0.848243 v -0.692484 c 0,-0.469926 0.378316,-0.848242 0.848242,-0.848242 z"
           style="color:#000000;overflow:visible;opacity:1;mix-blend-mode:normal;fill:#ffc726;fill-opacity:1;fill-rule:evenodd;stroke:#d21034;stroke-width:0.3895;stroke-linecap:round;stroke-linejoin:miter;stroke-miterlimit:4;stroke-dasharray:none;stroke-opacity:1"
           id="path1256" />
        <path
           sodipodi:nodetypes="cccccccc"
           id="path1258"
           d="m 30.69525,107.65098 c 3.801706,0.42241 4.377721,-2.07365 4.377721,-2.07365 -1.974722,-0.32536 -3.228395,-2.01255 -3.417696,-3.99372 -2.18886,0.65282 -2.726475,3.5713 -2.726475,3.5713 h -6.336174 l 0.652818,5.10734 4.72333,2.22726 c 0.787143,-1.63845 1.671615,-3.39209 2.726476,-4.83853 z"
           style="font-variation-settings:normal;opacity:1;mix-blend-mode:normal;vector-effect:none;fill:#ffc726;fill-opacity:1;fill-rule:evenodd;stroke:#d21034;stroke-width:0.3895;stroke-linecap:butt;stroke-linejoin:miter;stroke-miterlimit:4;stroke-dasharray:none;stroke-dashoffset:0;stroke-opacity:1;marker:none;marker-start:none;marker-mid:none;marker-end:none;stop-color:#c8102e;stop-opacity:1" />
        <path
           d="m 27.237589,87.980615 c -0.671377,0.639481 -1.276846,1.407772 -1.515625,2.31836 -0.05015,0.216493 -0.003,0.293 0.122275,0.0738 0.468911,-0.779844 1.023534,-1.514658 1.692178,-2.134836 -0.09577,-0.07412 -0.180521,-0.31768 -0.283765,-0.271669 z"
           style="color:#000000;font-style:normal;font-variant:normal;font-weight:normal;font-stretch:normal;font-size:medium;line-height:normal;font-family:sans-serif;font-variant-ligatures:normal;font-variant-position:normal;font-variant-caps:normal;font-variant-numeric:normal;font-variant-alternates:normal;font-variant-east-asian:normal;font-feature-settings:normal;font-variation-settings:normal;text-indent:0;text-align:start;text-decoration:none;text-decoration-line:none;text-decoration-style:solid;text-decoration-color:#000000;letter-spacing:normal;word-spacing:normal;text-transform:none;writing-mode:lr-tb;direction:ltr;text-orientation:mixed;dominant-baseline:auto;baseline-shift:baseline;text-anchor:start;white-space:normal;shape-padding:0;shape-margin:0;inline-size:0;clip-rule:nonzero;display:inline;overflow:visible;visibility:visible;opacity:1;isolation:auto;mix-blend-mode:normal;color-interpolation:sRGB;color-interpolation-filters:linearRGB;solid-color:#000000;solid-opacity:1;vector-effect:none;fill:#d21034;fill-opacity:1;fill-rule:evenodd;stroke:none;stroke-width:0.3895;stroke-linecap:butt;stroke-linejoin:miter;stroke-miterlimit:4;stroke-dasharray:none;stroke-dashoffset:0;stroke-opacity:1;marker:none;color-rendering:auto;image-rendering:auto;shape-rendering:auto;text-rendering:auto;enable-background:accumulate;stop-color:#c8102e;stop-opacity:1"
           id="path1260" />
      </g>
      <g
         id="g1272"
         style="stroke:#c8102e;stroke-width:0.3895;stroke-miterlimit:4;stroke-dasharray:none">
        <path
           sodipodi:nodetypes="cczcscsscscc"
           id="path1264"
           d="m 31.534441,174.7428 c 0,0 -7.494408,-4.72474 -9.395164,-5.64796 -1.900755,-0.92322 -2.715365,-1.03184 -3.964433,-0.27153 -1.249068,0.7603 -0.325844,1.79214 -0.325844,1.79214 -0.923224,0.10861 -1.900755,-0.38016 -2.280906,-1.4663 -0.380151,-1.08615 1.086146,-2.11799 1.086146,-2.11799 -0.81461,-0.97753 -0.380152,-2.49814 1.900755,-3.04121 2.280907,-0.54307 3.529975,-1.5206 3.529975,-1.5206 0,0 0.380151,1.5206 -0.760302,2.33521 0,0 2.335214,0.48877 5.213501,2.11799 2.878287,1.62922 7.711637,3.6929 7.711637,3.6929 z"
           style="font-variation-settings:normal;opacity:1;vector-effect:none;fill:#ffc726;fill-opacity:1;fill-rule:evenodd;stroke:#d21034;stroke-width:0.3895;stroke-linecap:butt;stroke-linejoin:miter;stroke-miterlimit:4;stroke-dasharray:none;stroke-dashoffset:0;stroke-opacity:1;marker:none;marker-start:none;marker-mid:none;marker-end:none;stop-color:#c8102e;stop-opacity:1" />
        <path
           sodipodi:nodetypes="czccscc"
           id="path1266"
           d="m 34.756674,170.59734 c 0,0 11.208374,6.29965 22.273712,6.29965 11.065338,0 17.479232,-2.49814 20.194598,-3.6929 0,0 3.25844,3.25844 7.711639,3.47567 -0.738744,0.89235 -9.747371,7.55115 -24.632359,7.53939 -16.484239,-0.013 -28.37157,-9.05999 -28.37157,-9.05999 z"
           style="font-variation-settings:normal;opacity:1;vector-effect:none;fill:#ffffff;fill-opacity:1;fill-rule:evenodd;stroke:#d21034;stroke-width:0.3895;stroke-linecap:butt;stroke-linejoin:miter;stroke-miterlimit:4;stroke-dasharray:none;stroke-dashoffset:0;stroke-opacity:1;marker:none;marker-start:none;marker-mid:none;marker-end:none;stop-color:#c8102e;stop-opacity:1" />
        <path
           style="font-variation-settings:normal;opacity:1;vector-effect:none;fill:#ffc72c;fill-opacity:1;fill-rule:evenodd;stroke:#d21034;stroke-width:0.3895;stroke-linecap:butt;stroke-linejoin:miter;stroke-miterlimit:4;stroke-dasharray:none;stroke-dashoffset:0;stroke-opacity:1;marker:none;marker-start:none;marker-mid:none;marker-end:none;stop-color:#c8102e;stop-opacity:1"
           d="m 33.21357,174.94892 c -0.615452,1.13876 -1.941014,3.77598 -1.941014,3.77598 0,0 1.328834,0.44761 1.161842,1.66246 -0.166991,1.21485 -1.296578,1.63841 -2.336594,1.16409 -1.040017,-0.47432 -1.476185,-1.48034 -0.857852,-2.79075 0.618333,-1.31042 1.746896,-3.36934 2.298025,-4.62157 0.551128,-1.25223 -0.06995,-2.21988 -0.06995,-2.21988 0,0 1.443388,-0.905 1.949066,-1.71786 0.502202,-0.80728 2.017816,-4.04477 2.017816,-4.04477 -0.515152,-0.0192 -1.40572,-0.48602 -1.238644,-1.70086 0.167076,-1.21484 1.37338,-1.48482 2.413396,-1.0105 1.040017,0.47432 1.284178,1.59552 0.78105,2.75235 -0.50313,1.15681 -1.746896,3.67655 -2.298025,4.92879 -0.551129,1.25224 -0.04525,2.60388 -0.04525,2.60388 0,0 -1.218411,0.0799 -1.833863,1.21864 z"
           id="path1268"
           sodipodi:nodetypes="zczzzzcsczzzzczz" />
      </g>
      <g
         id="g1280"
         style="display:inline;opacity:1;mix-blend-mode:normal;stroke:#c8102e;stroke-width:0.3895;stroke-miterlimit:4;stroke-dasharray:none">
        <path
           transform="rotate(43.112823,70.985275,97.713642)"
           d="m 90.170064,150.93677 c -0.484149,4.56281 -3.156082,10.32354 -5.426897,11.27707 -2.270815,0.95353 -3.816817,0.0369 -4.76692,-0.39554 -0.9501,-0.43242 -1.400473,-1e-4 -1.620119,0.93876 -1.75354,-0.0936 -4.612275,2.52196 -3.48781,4.89385 0.496255,-0.69418 1.295957,-1.91777 3.000254,-1.87717 0,0 0.07226,0.88029 0.428476,1.26997 0.356214,0.39008 1.749172,-0.11977 4.068282,-0.23351 0,0 -2.67194,1.5163 -3.683733,1.50867 -0.998259,-0.008 -1.496155,0.50823 -1.315451,1.46934 -1.964555,0.94973 -2.944406,4.67628 -0.362586,6.4942 -0.05297,-1.71913 0.282254,-2.98804 1.79454,-3.77499 0,0 0.213121,0.8422 1.398399,0.94779 1.185279,0.10559 1.775466,-1.56164 4.133497,-2.43674 -0.440589,1.03047 -1.395214,1.96101 -1.323435,2.53783 0.04549,0.36553 0.482957,0.49808 0.846461,0.70384 -0.274355,1.973 1.207784,5.70534 4.847235,5.34977 -0.888054,-0.85658 -2.14053,-2.28804 -1.677398,-3.92872 0.537718,-0.23301 0.799741,-0.20528 1.254492,-0.42045 0.524664,-0.24824 0.267267,-1.68949 0.734014,-4.32288 0.466747,-2.63339 1.41032,-3.66557 1.901667,-3.97843 0.491347,-0.31286 0.531246,0.37471 0.936566,0.73308 0.405318,0.35838 1.410767,0.0538 1.410767,0.0538 0.689235,0.74154 0.834851,1.59218 0.557004,2.69633 1.153377,-0.0821 2.162314,-2.23018 1.519927,-3.89642 0,0 0.586109,-0.88954 0.157152,-1.68093 -0.428958,-0.79138 -2.101792,-1.66509 -0.16378,-5.16457 0.738376,0.33499 1.376831,0.0766 1.376831,0.0766 l 0.49357,-1.55134 c 0,0 -1.345026,-0.5781 -1.270605,-2.15368 0.26672,0.35071 0.766782,1.21635 2.121471,0.91518 l 0.664668,-1.51497 c 0,0 -1.638968,-0.3998 -1.496448,-2.39304 0,0 0.600615,1.59508 2.143412,1.41539 l 0.820713,-1.58668 c 0,0 -1.644022,-0.24628 -1.676964,-2.74479 0,0 1.063708,1.5335 2.458044,1.19523 l 0.66214,-1.43822 c 0,0 -2.893316,-1.97801 -0.93472,-5.44829 l -1.790845,-2.78696 c 0,0 -2.350047,0.19152 -2.549155,-1.92824 -0.199109,-2.11977 0.453736,-4.44199 2.077467,-7.07802 1.623733,-2.63604 2.584443,-6.1392 2.584443,-6.1392 l -2.956606,-3.55539 -7.209542,1.91408 c 0,0 -2.229692,3.64731 -3.411039,9.07044 -1.111598,5.10294 -2.214544,5.80897 -3.195995,6.0422 -0.981451,0.23323 -2.126531,-0.76166 -2.126531,-0.76166 l -0.664667,1.51497 c 0,0 0.773547,2.17712 3.03248,1.25258 -1.111174,1.99771 0.574745,2.47566 0.722141,4.90338 0,0 1.042589,-0.15776 1.463507,-0.10547 0,0 0.599731,-0.71025 0.563438,-1.94095 1.110195,0.29502 3.422337,1.50011 2.938188,6.06292 z"
           style="color:#000000;font-style:normal;font-variant:normal;font-weight:normal;font-stretch:normal;font-size:medium;line-height:normal;font-family:sans-serif;font-variant-ligatures:normal;font-variant-position:normal;font-variant-caps:normal;font-variant-numeric:normal;font-variant-alternates:normal;font-variant-east-asian:normal;font-feature-settings:normal;font-variation-settings:normal;text-indent:0;text-align:start;text-decoration:none;text-decoration-line:none;text-decoration-style:solid;text-decoration-color:#000000;letter-spacing:normal;word-spacing:normal;text-transform:none;writing-mode:lr-tb;direction:ltr;text-orientation:mixed;dominant-baseline:auto;baseline-shift:baseline;text-anchor:start;white-space:normal;shape-padding:0;shape-margin:0;inline-size:0;clip-rule:nonzero;display:inline;overflow:visible;visibility:visible;opacity:1;isolation:auto;mix-blend-mode:normal;color-interpolation:sRGB;color-interpolation-filters:linearRGB;solid-color:#000000;solid-opacity:1;vector-effect:none;fill:#ffc726;fill-opacity:1;fill-rule:evenodd;stroke:#d21034;stroke-width:0.3895;stroke-linecap:butt;stroke-linejoin:miter;stroke-miterlimit:4;stroke-dasharray:none;stroke-dashoffset:0;stroke-opacity:1;marker:none;color-rendering:auto;image-rendering:auto;shape-rendering:auto;text-rendering:auto;enable-background:accumulate;stop-color:#c8102e;stop-opacity:1"
           id="path1274"
           sodipodi:nodetypes="zzscccccsccczcscccszsscccsccccccccccccccsscccssccccccz" />
        <path
           sodipodi:nodetypes="ccccccccscccccsscccccccscccccsssccccssscccccccsssccccss"
           d="m 52.808818,140.5731 c -0.564962,0.0918 -1.067292,0.44592 -1.357869,0.93691 -0.351817,0.5625 -0.607493,1.19102 -1.055706,1.67442 0.11233,0.0507 0.248322,0.27101 0.344589,0.20485 0.504941,-0.63295 0.821397,-1.38874 1.299943,-2.03835 0.243626,-0.32751 0.581744,-0.55704 0.965613,-0.69298 0.272603,-0.14471 -0.101637,-0.10478 -0.19657,-0.0848 z m 2.459961,11.66211 c 0.375223,0.76959 0.154065,1.66581 -0.192561,2.41227 -0.145025,0.14828 0.04224,0.19571 0.159291,0.26488 0.129658,0.14005 0.168772,-0.0457 0.223699,-0.14737 0.342631,-0.73072 0.495769,-1.64356 0.07178,-2.375 -0.07415,-0.12601 -0.157141,-0.2492 -0.287598,-0.32275 0.0085,0.056 0.01693,0.11198 0.02539,0.16797 z m -2.692383,1.17969 c 0.242909,0.82056 -0.02407,1.69473 -0.401275,2.43054 -0.139414,0.14804 -0.06351,0.2352 0.102679,0.30367 0.124771,0.14509 0.186012,0.0118 0.2434,-0.10805 0.40688,-0.76879 0.619022,-1.73261 0.236348,-2.5539 -0.04253,-0.11986 -0.230889,-0.35826 -0.180808,-0.0922 z m -3.034668,1.37744 c 0.178336,0.77143 0.01756,1.58446 -0.325297,2.27967 -0.02378,0.11033 -0.21636,0.27246 -0.03113,0.31923 0.131783,0.0743 0.287514,0.22087 0.320275,-0.0139 0.301083,-0.67339 0.551018,-1.43821 0.369643,-2.17828 -0.05971,-0.23607 -0.191234,-0.44616 -0.354492,-0.62451 0.007,0.0726 0.014,0.14518 0.02099,0.21778 z m -17.595572,0.95207 c -0.02394,0.11972 -0.198437,0.34271 0.01246,0.34763 0.678062,0.18581 1.467513,0.35481 2.171113,0.30767 0.26735,-0.0187 0.01596,-0.12483 -0.110046,-0.14271 -0.666002,-0.14144 -1.403274,-0.37442 -2.053993,-0.57411 -0.0065,0.0205 -0.01531,0.0404 -0.01953,0.0615 z m 14.829947,0.5826 c 0.107025,0.52666 0.09805,1.10022 -0.17668,1.56838 -0.25246,0.43814 -0.429558,0.92769 -0.425371,1.43894 -0.0032,0.13128 0.0035,0.26241 0.0083,0.39356 0.119264,-0.0466 0.313079,-0.0409 0.385864,-0.12006 -0.09107,-0.50262 0.06167,-1.00808 0.305751,-1.445 0.229575,-0.40804 0.368058,-0.8962 0.225408,-1.35793 -0.06865,-0.23432 -0.148773,-0.4757 -0.313019,-0.66149 -0.0034,0.0612 -0.0068,0.1224 -0.01026,0.1836 z m -14.111817,3.2915 c -0.721302,0.18904 -1.445353,0.37781 -2.168457,0.56397 0.05679,0.10833 0.02829,0.36337 0.144404,0.37005 1.046708,-0.28736 2.093912,-0.60189 3.070928,-1.08099 0.237783,-0.14282 -0.02666,-0.14285 -0.165675,-0.0888 -0.293733,0.0786 -0.587466,0.15717 -0.8812,0.23576 z"
           style="color:#000000;font-style:normal;font-variant:normal;font-weight:normal;font-stretch:normal;font-size:medium;line-height:normal;font-family:sans-serif;font-variant-ligatures:normal;font-variant-position:normal;font-variant-caps:normal;font-variant-numeric:normal;font-variant-alternates:normal;font-variant-east-asian:normal;font-feature-settings:normal;font-variation-settings:normal;text-indent:0;text-align:start;text-decoration:none;text-decoration-line:none;text-decoration-style:solid;text-decoration-color:#000000;letter-spacing:normal;word-spacing:normal;text-transform:none;writing-mode:lr-tb;direction:ltr;text-orientation:mixed;dominant-baseline:auto;baseline-shift:baseline;text-anchor:start;white-space:normal;shape-padding:0;shape-margin:0;inline-size:0;clip-rule:nonzero;display:inline;overflow:visible;visibility:visible;opacity:1;isolation:auto;mix-blend-mode:normal;color-interpolation:sRGB;color-interpolation-filters:linearRGB;solid-color:#000000;solid-opacity:1;vector-effect:none;fill:#d21034;fill-opacity:1;fill-rule:evenodd;stroke:none;stroke-width:0.3895;stroke-linecap:butt;stroke-linejoin:miter;stroke-miterlimit:4;stroke-dasharray:none;stroke-dashoffset:0;stroke-opacity:1;marker:none;color-rendering:auto;image-rendering:auto;shape-rendering:auto;text-rendering:auto;enable-background:accumulate;stop-color:#c8102e;stop-opacity:1"
           id="path1276" />
        <path
           sodipodi:nodetypes="ccc"
           id="path1278"
           d="m 68.897865,132.54603 c 0,0 -0.977532,0.38015 -1.574914,1.30337 0,0 3.434538,0.83052 4.932648,3.9842"
           style="font-variation-settings:normal;display:inline;opacity:1;mix-blend-mode:normal;vector-effect:none;fill:none;fill-opacity:1;fill-rule:evenodd;stroke:#d21034;stroke-width:0.3895;stroke-linecap:butt;stroke-linejoin:miter;stroke-miterlimit:4;stroke-dasharray:none;stroke-dashoffset:0;stroke-opacity:1;marker:none;marker-start:none;marker-mid:none;marker-end:none;stop-color:#c8102e;stop-opacity:1" />
      </g>
      <g
         id="g1288"
         style="stroke:#c8102e;stroke-width:0.3895;stroke-miterlimit:4;stroke-dasharray:none">
        <path
           id="path1282"
           style="color:#000000;font-style:normal;font-variant:normal;font-weight:normal;font-stretch:normal;font-size:medium;line-height:normal;font-family:sans-serif;font-variant-ligatures:normal;font-variant-position:normal;font-variant-caps:normal;font-variant-numeric:normal;font-variant-alternates:normal;font-variant-east-asian:normal;font-feature-settings:normal;font-variation-settings:normal;text-indent:0;text-align:start;text-decoration:none;text-decoration-line:none;text-decoration-style:solid;text-decoration-color:#000000;letter-spacing:normal;word-spacing:normal;text-transform:none;writing-mode:lr-tb;direction:ltr;text-orientation:mixed;dominant-baseline:auto;baseline-shift:baseline;text-anchor:start;white-space:normal;shape-padding:0;shape-margin:0;inline-size:0;clip-rule:nonzero;display:inline;overflow:visible;visibility:visible;opacity:1;isolation:auto;mix-blend-mode:normal;color-interpolation:sRGB;color-interpolation-filters:linearRGB;solid-color:#000000;solid-opacity:1;vector-effect:none;fill:#ffc726;fill-opacity:1;fill-rule:evenodd;stroke:#d21034;stroke-width:1.47213;stroke-linecap:butt;stroke-linejoin:miter;stroke-miterlimit:4;stroke-dasharray:none;stroke-dashoffset:0;stroke-opacity:1;marker:none;color-rendering:auto;image-rendering:auto;shape-rendering:auto;text-rendering:auto;enable-background:accumulate;stop-color:#c8102e;stop-opacity:1"
           d="m 326.41992,331.96094 c -3.8179,-10e-4 -7.92614,0.38945 -12.31836,1.27148 -17.56888,3.52814 -29.12334,19.94 -30.27539,34.95313 -1.19092,15.51953 8.25686,29.4754 17.75,35.33007 9.49315,5.85468 10.5441,7.24721 13.58203,9.01172 -4.2955,2.48477 -14.93771,6.94779 -19.45312,15.56836 -4.51554,8.62082 -1.84731,14.5726 0,18.67774 1.8473,4.10509 1.00227,9.6326 -1.02539,13.34179 h 22.57812 c 0,0 7.18377,-7.38813 4.72071,-19.29296 -2.46308,-11.90487 5.0947,-17.13255 7.62695,-19.44532 6.56548,4.62078 10.7682,7.9539 14.51562,13.03321 6.83966,9.27053 8.42027,20.15776 3.4043,31.92578 -4.85951,11.40087 -14.89479,16.40482 -23.29101,17.64258 -8.71807,1.28519 -15.23843,0.12369 -24.85938,-3.4629 -9.62095,-3.58646 -25.83787,-16.22636 -39.38477,-27.7207 -13.54689,-11.49434 -23.39843,-31.60937 -23.39843,-31.60937 l -61.57618,-0.82227 -11.20312,5.18164 c 0,0 -3.47147,9.88015 -17.11133,17.19531 -13.63986,7.3152 -29.64252,16.56593 -43.47851,18.71289 -13.835996,2.14697 -21.599606,-4.89508 -26.115238,-13.31054 -4.361809,-8.12882 -6.309831,-7.49756 -9.646484,-4.31055 -6.414841,-5.18332 -18.817292,-1.98705 -20.935547,6.97852 3.057482,-1.0263 8.828019,-3.07956 13.957031,0.82031 0,0 -2.340771,2.93358 -2.113281,4.91602 0.227489,1.98243 5.396474,5.96288 14.427734,10.47851 0,0 -8.063394,-1.19416 -15.492187,-5.11523 -7.175747,-3.78751 -8.805315,-2.07703 -9.998047,1.81445 -8.216077,-0.71626 -16.104532,8.24617 -12.648438,18.30273 1.962812,-2.55908 5.604467,-7.07509 12.037109,-6.70507 0,0 -0.919772,2.71479 1.197266,4.64257 2.117042,1.92783 8.663851,-0.41191 17.035156,3.00977 -5.443948,1.73851 -8.983874,2.48283 -10.132812,4.35547 -0.728024,1.18662 -0.06837,2.35319 0.519531,3.81836 -6.843572,4.60244 -7.352879,16.53196 1.652344,22.1875 -0.07967,-3.22417 0.06256,-9.02541 5.300781,-12.77735 2.137504,0.58054 2.828519,1.67292 5.734375,1.84375 2.905856,0.17084 6.224325,-6.18027 10.701172,-8.63867 4.47685,-2.45851 8.041682,-2.95628 10.21875,-2.66601 2.177068,0.29026 1.160156,2.4679 1.160156,4.06445 0,1.59651 2.757813,2.4668 2.757813,2.4668 -0.145134,2.85853 -1.740696,4.99668 -5.369141,6.67578 2.612481,1.68238 10.207079,2.22119 12.480469,-3.77344 0,0 3.774308,0.87211 4.499998,-2.17578 0.72569,-3.04789 1.74193,-11.75586 20.0293,-11.75586 0,0 0.24089,2.75636 2.41797,4.49805 0,0 4.93526,-0.14504 8.27344,-1.88672 -0.43514,-7.55694 1.82249,-6.97748 4.93359,-11.75586 0,0 -3.77258,6.67648 1.16211,11.17578 l 8.12695,-2.17774 c -1.32959,-6.69883 1.08032,-6.90509 4.20899,-12.77148 0,0 -3.48285,7.83717 3.6289,11.75586 l 7.25781,-2.03125 c -2.65114,-7.24021 -1.73038,-7.65191 3.62696,-14.07813 -1.16111,2.75762 -3.04636,9.28756 2.90429,12.91602 l 6.9668,-1.5957 c -1.71547,-7.89865 0.55248,-8.38058 2.90234,-12.33789 10e-6,0 -2.90343,6.82225 2.03126,11.03125 0,0 5.51629,-0.28972 7.69335,-2.4668 0,0 -0.95645,-3.56217 0.14454,-5.80664 0,0 7.47333,7.62492 27.51367,13.13086 20.04033,5.50594 34.23212,10.71899 45.17773,21.52148 10.94561,10.8025 9.90638,19.42043 14.53711,31.58008 4.70823,12.36318 8.10049,20.04044 3.33789,24.38281 -4.76259,4.34238 -8.85351,2.61329 -8.85351,2.61329 0,0 0.21041,3.95507 1.95507,6.21289 0.20527,0.1028 4.10511,2.77024 9.03125,-0.10352 0,0 -0.8212,4.72138 1.33399,7.28711 2.42005,1.95771 5.25574,1.83716 8.20898,1.12891 -4.40479,-7.03771 2.85275,-13.2345 -0.92187,-18.98633 0,0 7.2918,1.6532 14.11328,2.3789 6.82148,0.72567 17.42666,5.45417 20.91602,22.28516 3.48935,16.83099 2.87341,28.73546 -6.56836,29.76172 -5.9426,0.64592 -11.78602,-0.64495 -15.37696,-2.2793 -3.59093,-1.63434 -6.39081,-3.36846 -7.80664,1.75 -8.23552,-0.43944 -16.41203,9.42026 -12.87304,17.92578 1.87561,-2.62367 5.34762,-7.66907 11.78906,-7.51562 0,0 -0.1764,3.74789 1.16992,5.2207 1.34632,1.47432 5.22426,1.97032 13.57812,0.80078 0,0 -6.63661,2.70923 -11.8496,2.66992 -5.14326,-0.0389 -6.03191,1.95936 -6.70704,7.14454 -7.42509,3.58953 -12.48657,19.22677 -2.72851,26.09765 -0.64972,-6.07665 2.42489,-12.84601 8.14062,-15.82031 0,0 0.59888,2.80251 3.4043,3.375 2.80541,0.57275 8.32041,-6.28485 16.9043,-8.44141 -1.66522,3.89466 -5.27325,7.41166 -5.00196,9.5918 0.17193,1.38153 1.82535,1.88248 3.19922,2.66016 -1.03693,7.457 3.95905,17.91312 15.34571,17.94336 -2.07479,-2.46917 -6.19964,-8.73065 -4.44922,-14.93165 2.03232,-0.88066 3.25399,-0.4602 5.63086,-2.14062 2.37686,-1.68038 1.00572,-8.71258 2.96875,-13.42773 1.96295,-4.71519 3.25817,-8.25895 5.11523,-9.44141 1.85706,-1.18246 1.57746,1.25686 3.10938,2.61133 1.53191,1.3545 5.33203,0.20312 5.33203,0.20312 1.89403,2.34357 2.55599,6.57879 1.50586,10.75196 4.35922,-0.31042 9.15448,-7.38014 6.72656,-13.67774 0,0 4.72904,-2.0963 2.61523,-5.99609 -2.11381,-3.89976 -6.8918,-11.77683 -2.87304,-21.62696 4.66214,1.76342 7.33007,-0.49414 7.33007,-0.49414 l 0.41016,-7.59375 c -6.18573,0.55023 -6.45406,-3.00679 -11.08398,-5.95312 6.36293,4.10513 10.46875,2.25781 10.46875,2.25781 l 1.02539,-8.20898 c -7.42184,-0.22606 -8.18343,-5.29617 -11.69922,-8.82618 6.56819,5.13139 11.28906,3.69336 11.28906,3.69336 l 0.41016,-8.20898 c -6.38523,-0.31903 -7.40599,-4.52375 -11.08399,-6.97852 5.95243,3.48934 10.87891,1.23047 10.87891,1.23047 v -8.41601 c -3.69461,0.6158 -7.79918,-0.61576 -11.9043,-4.51563 -4.10512,-3.89987 -3.69531,-12.10937 -3.69531,-12.10937 l -11.69922,-6.77344 c -13.75215,5.95242 -20.25195,-7.25195 -20.25195,-7.25195 3.89986,0.61576 5.74804,-2.25782 5.74804,-2.25782 1.08319,-2.39463 1.17853,-5.07922 0.61524,-7.18359 -7.01956,3.30849 -8.56619,-0.82691 -12.31641,-3.08008 5.74717,3.6946 10.34766,0.41016 10.34766,0.41016 1.12163,-3.50393 -0.084,-7.59375 -0.084,-7.59375 -5.59882,2.94777 -7.0672,-1.17226 -10.46875,-2.87305 5.33666,1.84732 8.82618,-1.84765 8.82618,-1.84765 1.23153,-2.46305 0.61523,-6.56836 0.61523,-6.56836 -7.38921,4.31036 -13.33008,-4.76368 -13.33008,-4.76368 0,0 6.99316,2.18683 18.01172,0.5625 8.75646,-1.29086 18.85915,-5.79049 25.99024,-14.76562 9.1366,-4.21538 11.82421,3.26367 11.82421,3.26367 3.1314,-3.2095 4.55274,-6.91992 4.55274,-6.91992 0,0 -0.64106,-8.64173 -10.19922,-7.16602 6.83536,-10.35488 13.3418,-4.05859 13.3418,-4.05859 1.39503,-4.26149 1.03515,-8.2168 1.03515,-8.2168 0,0 -4.08543,-6.96064 -11.49609,-2.46875 0.034,-1.42541 -0.0166,-2.84079 -0.12695,-4.24609 5.74733,-7.1763 11.77929,-2.87695 11.77929,-2.87695 0.41052,-4.51563 -0.41015,-7.59375 -0.41015,-7.59375 0,0 -5.92064,-7.35264 -13.73633,-0.42579 -1.3787,-3.78164 -3.29345,-7.38909 -5.75,-10.71874 -4.01563,-5.44286 -8.40148,-9.84241 -14.35742,-14.33204 1.79313,-1.46018 5.78604,-3.92896 11.88672,-9.27343 6.59443,-5.77705 13.40622,-14.46179 16.03125,-28.38477 2.71194,-14.38405 -2.62607,-28.50156 -13.46485,-36.36328 -5.96602,-4.32735 -14.79631,-7.85364 -26.25,-7.85742 z m 1.78516,13.1289 c 0,0 8.41838,1.30567 5.51562,10.88477 0,0 4.49898,0.8713 7.54688,-0.58008 0,0 2.68748,-4.82453 -0.21289,-10.13281 1.9868,0.84326 3.81569,1.86647 5.45117,3.05273 7.31389,5.30501 11.32731,15.21077 9.30859,25.91797 -2.10564,11.1682 -8.00457,18.38569 -15.83398,24.3457 -3.83954,2.92279 -8.48786,5.26628 -12.78906,7.44336 -4.65443,-3.37379 -7.95182,-3.89249 -17.44727,-10.0625 -9.49545,-6.17 -15.83592,-16.78944 -15.03906,-27.17382 0.41065,-5.3515 1.52276,-9.58067 5.71484,-14.64454 4.19207,-5.06386 8.71756,-1.16043 7.85156,2.9961 4.04881,0.12741 7.67774,-0.60938 7.67774,-0.60938 0,0 2.93728,-5.36097 -1.07227,-10.07226 0,0 8.53814,0.66686 5.49024,9.81054 0,0 4.21005,1.15977 7.69336,-0.14648 0,0 4.35353,-6.23975 0.14453,-11.0293 z"
           transform="scale(0.26458333)"
           sodipodi:nodetypes="sssscssccscssscscccssscccscscccscscccscsscccsccccccccccccscccssssccccccsssscccccccccccscccsssscccsccccccccccccsccccccccccccscccccccccccscsssssccccssscssscccccc" />
        <path
           sodipodi:nodetypes="sccccccccsssccccccccssscccccsssccccsssccccsssccccsscccccccsccccssscccccssccccccccccccccccccccscccsscccccccccscccccsscccccccscccccssscccssscccss"
           d="m 80.549382,113.70423 c -0.800675,0.62503 -1.20142,1.6885 -1.060315,2.68881 0.07236,0.64893 0.35419,1.24679 0.660865,1.81432 0.44354,0.90839 0.37221,2.01644 -0.09592,2.89492 -0.105875,0.21471 -0.240425,0.4136 -0.38696,0.60243 h 0.71582 c 0.70906,-1.01696 0.860065,-2.41379 0.314065,-3.53765 -0.31323,-0.59373 -0.624925,-1.20578 -0.71924,-1.87942 -0.149715,-0.8637 0.0963,-1.76597 0.637595,-2.4567 0.07717,-0.14683 0.169645,-0.27599 -0.06592,-0.12671 z m 2.726075,9.5e-4 c -0.57571,0.45762 -1.06133,1.08736 -1.154785,1.83593 -0.12871,0.9081 0.165455,1.80054 0.45031,2.64989 0.32261,1.07348 0.192305,2.30108 -0.435135,3.25083 -0.02265,0.0821 -0.249045,0.25042 -0.14584,0.26286 h 0.56426 c 0.769005,-1.04812 0.91108,-2.47892 0.48428,-3.69289 -0.29852,-0.76937 -0.58575,-1.57374 -0.512605,-2.416 0.0482,-0.69051 0.417415,-1.27351 0.843265,-1.80176 0.0699,-0.17481 0.09457,-0.18005 -0.09375,-0.0889 z m -31.620608,5.09084 c -0.379864,0.74948 -0.386668,1.72624 0.14795,2.40479 -0.546139,1.10214 -1.023103,2.21206 -1.511644,3.34033 0.121306,0.0183 0.303233,0.19319 0.383709,0.10472 0.544007,-1.14692 1.037307,-2.2926 1.583013,-3.4387 -0.544282,-0.65736 -0.626194,-1.579 -0.481815,-2.39896 -0.0083,-0.22252 -0.0044,-0.15177 -0.121213,-0.0122 z m -3.309082,2.10156 c 0.0274,1.00597 -0.352393,2.18663 -0.748593,3.09161 0.08171,0.0553 0.268469,0.1728 0.358922,0.16036 0.396993,-0.8713 0.702824,-2.04574 0.571312,-3.00831 -0.02282,-0.14334 -0.04696,-0.28884 -0.137695,-0.40723 -0.01465,0.0545 -0.02929,0.10905 -0.04395,0.16357 z m -3.225097,0.80274 c -0.02698,0.85904 -0.494023,1.82269 -0.906674,2.5529 0.117044,0.0349 0.277576,0.2328 0.364852,0.15445 0.398928,-0.68932 0.851656,-1.6651 0.72256,-2.4893 -0.01902,-0.14289 -0.06585,-0.27911 -0.136793,-0.40457 -0.01464,0.0622 -0.02929,0.12435 -0.04395,0.18652 z m -3.800782,1.18164 c -0.144539,0.83681 -0.54828,1.80882 -0.957454,2.54509 0.122666,0.0197 0.300675,0.19953 0.386449,0.11366 0.337592,-0.65377 0.708257,-1.54812 0.745363,-2.29476 0.01054,-0.20189 -0.05112,-0.39613 -0.11967,-0.58323 -0.01823,0.0731 -0.03646,0.14616 -0.05469,0.21924 z m -22.304159,0.4996 c 3e-6,0.12202 -0.176914,0.35402 0.0337,0.34566 0.612723,0.12527 1.432364,0.14032 2.056293,0.12034 0.278391,-0.0223 -0.03057,-0.14137 -0.155688,-0.15533 -0.578615,-0.13067 -1.342483,-0.22886 -1.918686,-0.37365 -0.0052,0.021 -0.01041,0.042 -0.01563,0.063 z m 18.692343,0.66153 c 0.0044,0.81243 -0.543498,1.68423 -0.909115,2.36931 0.119326,0.029 0.284455,0.22008 0.372605,0.13957 0.363712,-0.62331 0.814064,-1.50991 0.723235,-2.26155 -0.01793,-0.15259 -0.06669,-0.29879 -0.143268,-0.4319 -0.01449,0.0615 -0.02897,0.12305 -0.04346,0.18457 z m -4.03125,1.49756 c 0.01046,0.56576 -0.169957,1.11875 -0.474506,1.59191 -0.298292,0.46636 -0.491432,1.00484 -0.491519,1.56295 0.03748,0.10247 0.272988,0.005 0.391806,0.0248 0.02215,-0.84913 0.641754,-1.56276 0.779779,-2.40172 0.05004,-0.33099 0.0046,-0.68402 -0.169915,-0.97377 -0.01188,0.0653 -0.02376,0.13053 -0.03564,0.1958 z m -13.824219,1.39453 c -0.94643,0.14796 -1.879894,0.46531 -2.810547,0.69041 0.05698,0.10888 0.0274,0.36334 0.144166,0.37198 0.969459,-0.25547 1.946583,-0.59609 2.882202,-0.96082 0.239442,-0.10642 0.05473,-0.14178 -0.106623,-0.11551 -0.0364,0.005 -0.0728,0.009 -0.109198,0.014 z m 60.869144,6.43848 c 0.291805,0.22411 0.65331,0.3344 0.971355,0.51762 0.235885,0.11794 0.542405,0.33903 0.77443,0.4643 0.0331,-0.11759 0.228425,-0.28343 0.14867,-0.36762 -0.52046,-0.27754 -1.17185,-0.56253 -1.758355,-0.62144 -0.04535,0.002 -0.09074,0.005 -0.1361,0.007 z m 0.281735,2.59961 c -0.14528,0.01 -0.284205,0.053 -0.416015,0.11328 0.302535,0.0867 0.628025,0.10172 0.907735,0.26361 0.331735,0.16382 0.665707,0.48301 0.984932,0.6685 0.03275,-0.11826 0.228945,-0.27199 0.15351,-0.36578 -0.45836,-0.33599 -1.043187,-0.72751 -1.630162,-0.67961 z m 0.81348,3.22607 c -0.239145,0.008 -0.18477,0.0696 0.0052,0.13437 0.787055,0.23783 1.488567,0.89271 2.323052,0.97958 -0.01965,-0.12185 0.09319,-0.34839 -0.0153,-0.39982 -0.7958,-0.0766 -1.498347,-0.75934 -2.312922,-0.71413 z m 9.395015,9.42285 c -0.159985,0.006 -0.32154,0.0171 -0.46875,0.0859 0.29193,0.1253 0.615405,0.11859 0.91645,0.23148 0.626865,0.17448 1.127676,0.601 1.605236,1.02564 0.136705,0.11314 0.547213,0.43904 0.699848,0.52936 0.0338,-0.11858 0.23109,-0.27912 0.152935,-0.37029 -0.501895,-0.32569 -1.152444,-1.04163 -1.713974,-1.27614 -0.37214,-0.16953 -0.78395,-0.24184 -1.191745,-0.22599 z m -0.319335,3.04737 c -0.0839,-0.006 -0.40132,0.0651 -0.196435,0.11358 0.27218,0.0675 0.56892,0.0877 0.84116,0.19762 0.75946,0.25679 1.576712,1.00201 2.171157,1.52283 0.05562,-0.10923 0.279895,-0.23165 0.21895,-0.33244 -0.667455,-0.5979 -1.629657,-1.39434 -2.548552,-1.49002 -0.16144,-0.0172 -0.32411,-0.0208 -0.48628,-0.0116 z m 0.374025,3.59863 c 0.308725,0.19162 0.652615,0.33425 0.91738,0.59242 0.48971,0.42972 0.992105,1.16983 1.606036,1.52279 0.03645,-0.11797 0.238035,-0.27246 0.16305,-0.36571 -0.70558,-0.42657 -1.303256,-1.44755 -2.120061,-1.70165 -0.1839,-0.0563 -0.375535,-0.0773 -0.566405,-0.0478 z m 0.229005,3.55469 c -0.26253,0.0152 -0.101595,0.11206 0.05917,0.14576 0.962305,0.23861 1.63497,1.0173 2.391505,1.60033 0.178345,0.13408 0.340226,0.32184 0.542691,0.41623 0.02135,-0.12179 0.198655,-0.28468 0.118255,-0.3795 -0.78289,-0.53677 -1.408136,-1.36844 -2.328426,-1.67931 -0.252445,-0.0806 -0.5184,-0.11583 -0.7832,-0.10351 z m -7.31055,7.10644 c -0.684125,0.16464 -1.469051,0.47194 -2.144191,0.67022 0.06102,0.10644 0.04265,0.36285 0.159465,0.36522 0.66757,-0.2157 1.441756,-0.57953 2.049651,-0.93209 0.17037,-0.1433 0.11706,-0.0968 -0.06492,-0.10335 z m 1.50684,2.54932 c -0.67697,0.60873 -1.229905,1.34087 -1.73389,2.09522 0.11616,0.0396 0.26788,0.24534 0.35973,0.17094 0.4787,-0.74464 0.981995,-1.47708 1.47963,-2.20429 0.07749,-0.17887 0.0419,-0.13615 -0.10547,-0.0619 z"
           style="color:#000000;font-style:normal;font-variant:normal;font-weight:normal;font-stretch:normal;font-size:medium;line-height:normal;font-family:sans-serif;font-variant-ligatures:normal;font-variant-position:normal;font-variant-caps:normal;font-variant-numeric:normal;font-variant-alternates:normal;font-variant-east-asian:normal;font-feature-settings:normal;font-variation-settings:normal;text-indent:0;text-align:start;text-decoration:none;text-decoration-line:none;text-decoration-style:solid;text-decoration-color:#000000;letter-spacing:normal;word-spacing:normal;text-transform:none;writing-mode:lr-tb;direction:ltr;text-orientation:mixed;dominant-baseline:auto;baseline-shift:baseline;text-anchor:start;white-space:normal;shape-padding:0;shape-margin:0;inline-size:0;clip-rule:nonzero;display:inline;overflow:visible;visibility:visible;opacity:1;isolation:auto;mix-blend-mode:normal;color-interpolation:sRGB;color-interpolation-filters:linearRGB;solid-color:#000000;solid-opacity:1;vector-effect:none;fill:#d21034;fill-opacity:1;fill-rule:evenodd;stroke:none;stroke-width:0.3895;stroke-linecap:butt;stroke-linejoin:miter;stroke-miterlimit:4;stroke-dasharray:none;stroke-dashoffset:0;stroke-opacity:1;marker:none;color-rendering:auto;image-rendering:auto;shape-rendering:auto;text-rendering:auto;enable-background:accumulate;stop-color:#c8102e;stop-opacity:1"
           id="path1284" />
        <path
           sodipodi:nodetypes="cccc"
           id="path1286"
           d="m 87.208273,111.48933 c 0.796963,-0.77745 1.411123,-1.30582 2.278108,-1.994 m -6.100829,-0.34752 c 1.335271,-0.69821 1.962179,-1.09734 3.183899,-1.72137"
           style="font-variation-settings:normal;display:inline;opacity:1;mix-blend-mode:normal;vector-effect:none;fill:none;fill-opacity:1;fill-rule:evenodd;stroke:#d21034;stroke-width:0.3895;stroke-linecap:butt;stroke-linejoin:miter;stroke-miterlimit:4;stroke-dasharray:none;stroke-dashoffset:0;stroke-opacity:1;marker:none;marker-start:none;marker-mid:none;marker-end:none;stop-color:#c8102e;stop-opacity:1" />
      </g>
      <g
         id="g1299"
         style="stroke:#c8102e;stroke-width:0.3895;stroke-miterlimit:4;stroke-dasharray:none">
        <path
           style="font-variation-settings:normal;opacity:1;vector-effect:none;fill:#ffc726;fill-opacity:1;fill-rule:evenodd;stroke:#d21034;stroke-width:0.3895;stroke-linecap:butt;stroke-linejoin:miter;stroke-miterlimit:4;stroke-dasharray:none;stroke-dashoffset:0;stroke-opacity:1;marker:none;marker-start:none;marker-mid:none;marker-end:none;stop-color:#c8102e;stop-opacity:1"
           d="m 38.167053,95.155178 c -1.048337,1.701009 -0.785527,5.548662 3.776287,5.440052 4.561813,-0.10862 7.168565,-0.977535 10.318387,0.10861 3.149825,1.08615 3.692898,2.33522 3.692898,2.33522 l 0.03181,-1.47562 c 0,0 -3.111424,-3.744473 -8.922303,-3.147094 -5.810883,0.597382 -5.992439,-0.906187 -5.890414,-2.043912 0.102025,-1.137724 1.545829,-1.683525 1.545829,-1.683525 -0.456884,-1.084611 -3.504158,-1.23474 -4.552494,0.466269 z"
           id="path1290"
           sodipodi:nodetypes="zssccszcz" />
        <path
           sodipodi:nodetypes="cscccccczzzzccczccccccccccccccccccccccccccccccccccccccc"
           id="path1293"
           d="m 48.295349,80.814893 c -1.958454,2.265663 -2.290877,3.782648 -2.290877,3.782648 0.192006,0.460814 0.30721,0.652819 -0.230405,1.574445 -0.537615,0.921623 -2.611273,4.569727 -2.611273,4.569727 0,0 0.460814,1.152032 2.073659,1.80485 0,0 0,1.536042 0.576016,2.688074 0,0 0.883224,0.268808 1.80485,0.422412 0,0 -0.0384,1.420839 1.036828,2.265662 0,0 0.207912,-2.493339 1.881652,-3.293173 1.67374,-0.799834 3.201983,-0.526803 4.253201,1.619433 1.051218,2.146236 1.273039,4.536669 0.06361,7.175539 -1.209415,2.63886 -4.284663,2.00947 -5.168236,0.58806 -0.883573,-1.42141 -0.876636,-2.78738 -0.723032,-3.4786 0,0 -1.177633,-0.0768 -1.600045,2.03527 0,0 -0.806422,0.30721 -1.651245,0.30721 0,0 -0.192005,0.46081 -0.0384,1.42084 0.153605,0.96002 -1.344038,3.5329 -3.648101,2.84168 0,0 -0.153606,1.11363 0.268806,1.95845 0,0 1.344037,0.92163 2.764877,0.38401 -2.215644,1.15546 -4.405459,0.76266 -5.721759,2.49607 0,0 0.576016,1.15203 0.537615,1.95846 2.1858,-1.26066 4.150326,-0.35705 6.84819,-1.68965 0,0 -1.152032,1.76644 -0.460813,3.53289 l 1.843251,0.57602 c 0,0 -0.0768,-1.92005 1.881652,-2.76487 0,0 -0.384011,1.80485 0.307209,3.07208 0.615279,0.28075 1.369511,0.46094 2.18886,0.53762 0,0 -0.691219,-2.15046 1.459241,-3.87851 0,0 -0.268808,2.64967 1.075229,3.8017 0.618649,0.21771 1.700445,0.27482 2.227262,0.11521 -1.148104,-1.86602 0.09044,-2.18472 0.422412,-4.72333 0.652366,1.55747 0.734051,3.15993 2.150459,4.30091 0.817456,-0.0459 1.355007,-0.0969 2.265663,-0.38401 -1.565404,-2.01107 -0.572218,-3.14581 -1.305636,-5.03054 1.218385,1.54096 2.362841,2.63249 4.684929,2.53448 0.528776,-0.76244 0.858597,-1.75208 0.960027,-2.49608 -3.321969,-0.40271 -2.85631,-1.97668 -4.646528,-4.10891 0,0 2.227261,2.22727 4.147314,0.92162 l 0.422412,-2.15045 c -2.974053,-0.0587 -2.124848,-1.02279 -4.396921,-2.93768 1.459578,0.58404 2.57272,1.71896 4.166515,1.01762 0.307209,-0.92162 0.384011,-2.38086 0.384011,-2.38086 -2.026573,0.0736 -2.622876,-0.0957 -4.032112,-1.72805 0,0 2.112059,1.53604 3.494497,0.49921 l 0.576015,-2.073652 c -1.839368,0.101941 -2.36197,0.01915 -3.840106,-1.42084 0,0 1.80485,1.07523 3.148887,-0.0768 l 0.268808,-1.817652 c 0,0 -2.342465,0.268807 -3.801705,-1.305636 0,0 2.112058,0.499213 3.187288,-0.806423 l 0.0384,-1.881652 c 0,0 -1.536043,0.614417 -2.726476,0.192004 0,0 0.04995,-1.274982 0.554869,-3.076978 l -1.834108,-4.642597 z"
           style="font-variation-settings:normal;opacity:1;mix-blend-mode:normal;vector-effect:none;fill:#ffc726;fill-opacity:1;fill-rule:evenodd;stroke:#d21034;stroke-width:0.3895;stroke-linecap:butt;stroke-linejoin:miter;stroke-miterlimit:4;stroke-dasharray:none;stroke-dashoffset:0;stroke-opacity:1;marker:none;marker-start:none;marker-mid:none;marker-end:none;stop-color:#c8102e;stop-opacity:1" />
        <path
           sodipodi:nodetypes="cccccccccccccccccccscccccssscccsscccccccsccccssccccccccscccccsssccccsssccccsccccccccccccccccccccccccccccccccsscccssscccscsccccc"
           d="m 48.171154,85.000522 c -0.209098,0.01833 -0.388435,0.13531 -0.574707,0.220703 0.324609,0.0012 0.661906,0.07153 0.904682,0.303024 0.08509,0.08854 0.223324,0.190142 0.235541,0.306508 -0.270254,0.470222 -0.46196,1.070445 -0.204554,1.587789 0.06014,0.129854 0.143694,0.247948 0.238159,0.354925 -0.244941,0.171893 -0.539028,0.245953 -0.803223,0.380371 0.662605,0.125226 1.329344,-0.141268 1.890137,-0.475586 0.235987,-0.142307 0.453856,-0.322919 0.663086,-0.493652 0.549225,0.181826 1.208091,0.257195 1.710937,-0.08984 C 51.818778,87.076845 51.397464,87.07534 51.00465,86.928256 50.168275,86.647713 49.495718,86.0412 48.926037,85.387264 48.72846,85.177377 48.482986,84.957287 48.171154,85.000522 Z m 9.058593,0.07178 c -0.544739,0.317004 -1.160412,0.463125 -1.775319,0.584366 -0.241203,0.06123 0.0074,0.128763 0.132445,0.11978 0.653738,0.002 1.32548,-0.08852 1.910941,-0.395552 -0.09117,-0.08566 -0.139838,-0.338152 -0.258476,-0.313961 z m 1.272461,0.981446 c -0.405571,0.05369 -0.761635,0.282091 -1.072265,0.536133 0.411323,-0.04328 0.87944,-0.165923 1.251953,0.07764 0.260442,0.256052 0.15948,0.667302 0.0609,0.975167 -0.07715,0.179033 -0.109514,0.298404 0.08185,0.118104 0.328158,-0.237487 0.680936,-0.590349 0.638979,-1.029306 -0.06583,-0.440736 -0.527859,-0.748976 -0.961426,-0.677734 z m -9.37207,0.15625 c 0.30652,0.274843 0.626238,0.549444 1.006348,0.717285 -0.296624,0.283498 -0.646351,0.508017 -1.014649,0.686523 -0.335371,-0.413361 -0.306028,-1.014598 -0.04883,-1.458496 0.01904,0.01823 0.03809,0.03646 0.05713,0.05469 z m 11.689388,0.734299 c -0.29661,0.621436 -0.763929,1.237739 -1.318322,1.650091 -0.221603,0.172539 0.03904,0.113296 0.172263,0.05983 0.664848,-0.222187 1.1772,-0.848781 1.464968,-1.466449 0.152609,-0.159618 -0.116321,-0.18546 -0.217604,-0.264271 -0.05549,-0.03257 -0.0799,-0.05632 -0.101305,0.0208 z m -1.802181,2.578689 c 0.218487,0.15301 0.50175,0.161264 0.737226,0.286263 1.088034,0.457282 1.90564,1.393505 3.027911,1.780632 0.0076,-0.123427 0.167889,-0.312411 0.07531,-0.391773 -1.101966,-0.46789 -2.005106,-1.348486 -3.183706,-1.641919 -0.21515,-0.03898 -0.442641,-0.108697 -0.656738,-0.0332 z m -12.161621,1.566895 c 0.05216,0.346385 -0.163819,0.660796 -0.444351,0.840448 -0.314022,0.233637 -0.690224,0.358626 -1.01854,0.565802 0.524146,0.04784 1.080776,-0.101464 1.491211,-0.436524 0.269291,-0.206159 0.44654,-0.631171 0.207628,-0.923502 -0.04573,-0.06291 -0.232657,-0.189704 -0.236184,-0.0929 l 1.26e-4,0.025 z m 12.602539,1.458496 c -0.130408,0.002 -0.368454,0.07956 -0.121362,0.128809 0.723276,0.08102 1.352772,0.482581 1.948384,0.873152 0.314039,0.205628 0.637511,0.400429 0.988896,0.535636 0.0142,-0.122753 0.183581,-0.305773 0.09452,-0.38825 -0.867874,-0.414593 -1.671667,-1.058899 -2.660003,-1.147454 -0.08331,-0.0067 -0.167005,-0.0054 -0.250437,-0.0019 z m 0.32959,3.3208 c 0.223862,0.142966 0.507058,0.126499 0.752393,0.222251 0.754645,0.231405 1.564734,0.672851 2.12747,1.223929 0.06466,-0.103452 0.300249,-0.206548 0.247134,-0.309041 -0.770111,-0.722329 -1.920921,-1.169551 -2.971724,-1.185478 -0.05176,0.01611 -0.103515,0.03222 -0.155273,0.04834 z m 0.706543,3.340332 c -0.240171,0.02016 -0.501745,0.01162 -0.709961,0.148438 0.253124,0.08956 0.530734,0.02338 0.79248,0.08496 0.650952,0.103597 1.393408,0.455999 1.890894,0.891283 0.05869,-0.10642 0.286664,-0.22252 0.227304,-0.32223 -0.573748,-0.485657 -1.450187,-0.823597 -2.200717,-0.802452 z m 0.01171,3.394041 c -0.09803,5e-4 -0.3257,0.0272 -0.336516,0.0795 0.270919,0.12075 0.569244,0.12947 0.846374,0.25061 0.290704,0.10671 0.698011,0.3078 0.958184,0.48233 0.045,-0.1133 0.257065,-0.26088 0.184981,-0.34998 -0.454356,-0.29087 -1.115651,-0.48245 -1.653023,-0.46241 z m -0.730957,3.74023 c 0.250677,0.15747 0.562122,0.1772 0.819569,0.3281 0.396986,0.19411 0.822971,0.50343 1.085595,0.86242 0.08044,-0.0929 0.331126,-0.16142 0.293516,-0.27052 -0.475857,-0.5913 -1.30113,-0.96136 -2.053608,-0.95345 -0.04836,0.0112 -0.09671,0.0223 -0.145072,0.0335 z m -13.439453,1.94336 c -0.362584,0.47344 -0.87535,0.82083 -1.431153,1.02832 0.06491,0.10343 0.03924,0.38887 0.154851,0.38503 0.617224,-0.23844 1.186835,-0.75993 1.396132,-1.39711 0.05693,-0.20618 0.0042,-0.10512 -0.11983,-0.0162 z m 1.291504,1.4541 c -0.07277,0.79448 -0.368364,1.51586 -0.86556,2.134 -0.07684,0.0953 -0.161101,0.18439 -0.249187,0.26932 0.101794,0.068 0.199882,0.3062 0.30391,0.25566 0.681154,-0.69713 1.038616,-1.71083 0.930921,-2.67925 -0.0572,-0.17897 -0.05341,-0.1239 -0.120084,0.0203 z m 11.513671,0.33301 c 0.615794,0.33467 1.24334,0.95243 1.551251,1.57986 0.09628,-0.0753 0.353419,-0.0969 0.336784,-0.21135 -0.358949,-0.67854 -1.121032,-1.29968 -1.861755,-1.48738 -0.193977,-0.019 -0.142525,10e-4 -0.02628,0.11887 z m -8.556152,0.48877 c 0.156998,1.03238 -0.08194,2.1508 -0.810059,2.93262 0.102679,0.0647 0.210123,0.29861 0.310871,0.24318 0.768334,-0.85846 0.969531,-2.14245 0.612293,-3.22118 -0.09441,-0.15778 -0.07671,-0.10709 -0.113105,0.0454 z m 3.153809,0.13281 c 0.380527,0.80474 0.393568,1.79148 -0.02685,2.5835 0.117112,0.035 0.285036,0.23176 0.367294,0.15191 0.444781,-0.88715 0.344822,-2.01729 -0.245717,-2.81204 -0.137458,-0.1271 -0.106746,-0.0812 -0.09472,0.0766 z m 3.141691,0.51518 c 0,0.14587 0.21862,0.22822 0.290478,0.36774 0.167732,0.24742 0.242622,0.72283 0.279256,1.01991 0.115113,-0.0411 0.366387,0.0203 0.386369,-0.0928 -0.07866,-0.54721 -0.44529,-1.20094 -0.956103,-1.3979 v 0.10303 z"
           style="color:#000000;font-style:normal;font-variant:normal;font-weight:normal;font-stretch:normal;font-size:medium;line-height:normal;font-family:sans-serif;font-variant-ligatures:normal;font-variant-position:normal;font-variant-caps:normal;font-variant-numeric:normal;font-variant-alternates:normal;font-variant-east-asian:normal;font-feature-settings:normal;font-variation-settings:normal;text-indent:0;text-align:start;text-decoration:none;text-decoration-line:none;text-decoration-style:solid;text-decoration-color:#000000;letter-spacing:normal;word-spacing:normal;text-transform:none;writing-mode:lr-tb;direction:ltr;text-orientation:mixed;dominant-baseline:auto;baseline-shift:baseline;text-anchor:start;white-space:normal;shape-padding:0;shape-margin:0;inline-size:0;clip-rule:nonzero;display:inline;overflow:visible;visibility:visible;opacity:1;isolation:auto;mix-blend-mode:normal;color-interpolation:sRGB;color-interpolation-filters:linearRGB;solid-color:#000000;solid-opacity:1;vector-effect:none;fill:#d21034;fill-opacity:1;fill-rule:evenodd;stroke:none;stroke-width:0.3895;stroke-linecap:butt;stroke-linejoin:miter;stroke-miterlimit:4;stroke-dasharray:none;stroke-dashoffset:0;stroke-opacity:1;marker:none;color-rendering:auto;image-rendering:auto;shape-rendering:auto;text-rendering:auto;enable-background:accumulate;stop-color:#c8102e;stop-opacity:1"
           id="path1295" />
        <path
           style="font-variation-settings:normal;opacity:1;mix-blend-mode:normal;vector-effect:none;fill:#ffc726;fill-opacity:1;fill-rule:evenodd;stroke:#d21034;stroke-width:1.35188;stroke-linecap:butt;stroke-linejoin:miter;stroke-miterlimit:4;stroke-dasharray:none;stroke-dashoffset:0;stroke-opacity:1;marker:none;marker-start:none;marker-mid:none;marker-end:none;stop-color:#c8102e;stop-opacity:1"
           d="M 7.3422043,39.675995 C 7.5474326,23.66603 0.43908773,1.089291 0.43908773,1.089291 4.1451034,-0.15689481 10.367528,1.4371965 11.904965,7.6806094 c 4.837984,0.07166 8.913335,2.7191096 9.271256,9.4856236 -2.410469,0.0011 -4.822753,-0.0565 -5.614564,2.520586 -0.791848,2.577086 0.454643,4.314164 2.737875,4.107108 2.283231,-0.207055 3.267097,-4.23967 3.267097,-4.23967 l 4.906146,-0.03247 c 0,0 0,4.414254 3.338155,4.414254 3.338192,0 4.421555,-3.901115 1.663937,-6.658734 -2.757619,-2.757596 -6.531213,-0.222841 -6.531213,-0.222841 -1.761297,-7.2601591 2.646199,-9.731089 6.095773,-9.3738481 1.537436,-6.2433977 5.873084,-7.83750411 6.901682,-8.33297372 1.028598,0.49546961 5.364246,2.52498892 6.901682,8.76838662 3.304441,0.078161 7.131363,3.8553452 5.660371,9.0835732 0,0 -3.338192,-2.389618 -6.095811,0.367974 -2.757618,2.757619 -1.674255,6.368459 1.663937,6.368459 3.338155,0 3.773556,-4.414254 3.773556,-4.414254 l 5.250595,0.362155 c 0,0 -0.204472,4.565892 2.216996,5.070893 2.421392,0.505002 3.871559,-1.011957 3.702387,-3.70264 -0.168945,-2.69068 -2.81862,-3.632459 -6.178394,-3.615024 1.490268,-6.931997 5.489991,-9.2820055 11.517619,-7.062603 3.243536,-5.0181184 10.244145,-5.6671517 13.557468,-3.5912462 0,0 -10.302625,18.6841952 -14.271166,36.3327212 l -9.260307,-0.669874 c -0.371527,-3.573007 -1.610041,-6.183542 -3.188031,-7.325439 -7.526138,0.446465 -8.468296,4.130774 -10.889726,6.300752 z"
           id="path1297"
           sodipodi:nodetypes="cccczzccsscccccsscczccccccccc"
           transform="matrix(0.26549999,0.11189767,-0.11189767,0.26549999,50.785645,69.459341)" />
      </g>
      <g
         id="g1301"
         transform="rotate(43.112823,70.985274,97.713641)"
         style="stroke:#c8102e;stroke-width:0.3895;stroke-miterlimit:4;stroke-dasharray:none" />
    </g>
  </g>
</svg>
